<mxfile host="app.diagrams.net" agent="Mozilla/5.0 (Windows NT 10.0; Win64; x64) AppleWebKit/537.36 (KHTML, like Gecko) Chrome/131.0.0.0 Safari/537.36 OPR/116.0.0.0" version="26.0.11">
  <diagram name="PÃ¡gina-1" id="XKLeAfTkc1Oo9cokKhsp">
    <mxGraphModel dx="1758" dy="499" grid="1" gridSize="10" guides="1" tooltips="1" connect="1" arrows="1" fold="1" page="1" pageScale="1" pageWidth="827" pageHeight="1169" math="0" shadow="0">
      <root>
        <mxCell id="0" />
        <mxCell id="1" parent="0" />
        <mxCell id="BtGQuGBfDNKT1R61ve6A-17" value="entrega de cartas" style="swimlane;fontStyle=1;align=center;verticalAlign=top;childLayout=stackLayout;horizontal=1;startSize=26;horizontalStack=0;resizeParent=1;resizeParentMax=0;resizeLast=0;collapsible=1;marginBottom=0;whiteSpace=wrap;html=1;" vertex="1" parent="1">
          <mxGeometry x="-305" y="507" width="160" height="86" as="geometry" />
        </mxCell>
        <mxCell id="BtGQuGBfDNKT1R61ve6A-18" value="cartas (entrega)&lt;div&gt;&lt;br&gt;&lt;/div&gt;" style="text;strokeColor=none;fillColor=none;align=left;verticalAlign=top;spacingLeft=4;spacingRight=4;overflow=hidden;rotatable=0;points=[[0,0.5],[1,0.5]];portConstraint=eastwest;whiteSpace=wrap;html=1;" vertex="1" parent="BtGQuGBfDNKT1R61ve6A-17">
          <mxGeometry y="26" width="160" height="26" as="geometry" />
        </mxCell>
        <mxCell id="BtGQuGBfDNKT1R61ve6A-19" value="" style="line;strokeWidth=1;fillColor=none;align=left;verticalAlign=middle;spacingTop=-1;spacingLeft=3;spacingRight=3;rotatable=0;labelPosition=right;points=[];portConstraint=eastwest;strokeColor=inherit;" vertex="1" parent="BtGQuGBfDNKT1R61ve6A-17">
          <mxGeometry y="52" width="160" height="8" as="geometry" />
        </mxCell>
        <mxCell id="BtGQuGBfDNKT1R61ve6A-20" value="suma de cartas" style="text;strokeColor=none;fillColor=none;align=left;verticalAlign=top;spacingLeft=4;spacingRight=4;overflow=hidden;rotatable=0;points=[[0,0.5],[1,0.5]];portConstraint=eastwest;whiteSpace=wrap;html=1;" vertex="1" parent="BtGQuGBfDNKT1R61ve6A-17">
          <mxGeometry y="60" width="160" height="26" as="geometry" />
        </mxCell>
        <mxCell id="BtGQuGBfDNKT1R61ve6A-21" value="bot" style="swimlane;fontStyle=0;childLayout=stackLayout;horizontal=1;startSize=26;fillColor=none;horizontalStack=0;resizeParent=1;resizeParentMax=0;resizeLast=0;collapsible=1;marginBottom=0;whiteSpace=wrap;html=1;" vertex="1" parent="1">
          <mxGeometry x="175" y="498" width="140" height="104" as="geometry" />
        </mxCell>
        <mxCell id="BtGQuGBfDNKT1R61ve6A-22" value="cartas" style="text;strokeColor=none;fillColor=none;align=left;verticalAlign=top;spacingLeft=4;spacingRight=4;overflow=hidden;rotatable=0;points=[[0,0.5],[1,0.5]];portConstraint=eastwest;whiteSpace=wrap;html=1;" vertex="1" parent="BtGQuGBfDNKT1R61ve6A-21">
          <mxGeometry y="26" width="140" height="26" as="geometry" />
        </mxCell>
        <mxCell id="BtGQuGBfDNKT1R61ve6A-23" value="recojer" style="text;strokeColor=none;fillColor=none;align=left;verticalAlign=top;spacingLeft=4;spacingRight=4;overflow=hidden;rotatable=0;points=[[0,0.5],[1,0.5]];portConstraint=eastwest;whiteSpace=wrap;html=1;" vertex="1" parent="BtGQuGBfDNKT1R61ve6A-21">
          <mxGeometry y="52" width="140" height="26" as="geometry" />
        </mxCell>
        <mxCell id="BtGQuGBfDNKT1R61ve6A-24" value="quedarse" style="text;strokeColor=none;fillColor=none;align=left;verticalAlign=top;spacingLeft=4;spacingRight=4;overflow=hidden;rotatable=0;points=[[0,0.5],[1,0.5]];portConstraint=eastwest;whiteSpace=wrap;html=1;" vertex="1" parent="BtGQuGBfDNKT1R61ve6A-21">
          <mxGeometry y="78" width="140" height="26" as="geometry" />
        </mxCell>
        <mxCell id="BtGQuGBfDNKT1R61ve6A-25" value="derrotas/victorias/continua" style="swimlane;fontStyle=1;align=center;verticalAlign=top;childLayout=stackLayout;horizontal=1;startSize=26;horizontalStack=0;resizeParent=1;resizeParentMax=0;resizeLast=0;collapsible=1;marginBottom=0;whiteSpace=wrap;html=1;" vertex="1" parent="1">
          <mxGeometry x="-305" y="655" width="160" height="120" as="geometry" />
        </mxCell>
        <mxCell id="BtGQuGBfDNKT1R61ve6A-27" value="" style="line;strokeWidth=1;fillColor=none;align=left;verticalAlign=middle;spacingTop=-1;spacingLeft=3;spacingRight=3;rotatable=0;labelPosition=right;points=[];portConstraint=eastwest;strokeColor=inherit;" vertex="1" parent="BtGQuGBfDNKT1R61ve6A-25">
          <mxGeometry y="26" width="160" height="8" as="geometry" />
        </mxCell>
        <mxCell id="BtGQuGBfDNKT1R61ve6A-38" value="continua" style="html=1;whiteSpace=wrap;" vertex="1" parent="BtGQuGBfDNKT1R61ve6A-25">
          <mxGeometry y="34" width="160" height="20" as="geometry" />
        </mxCell>
        <mxCell id="BtGQuGBfDNKT1R61ve6A-39" value="derrotas" style="html=1;whiteSpace=wrap;" vertex="1" parent="BtGQuGBfDNKT1R61ve6A-25">
          <mxGeometry y="54" width="160" height="20" as="geometry" />
        </mxCell>
        <mxCell id="BtGQuGBfDNKT1R61ve6A-37" value="&lt;div&gt;&lt;span style=&quot;background-color: light-dark(rgb(251, 251, 251), rgb(21, 21, 21)); color: light-dark(rgb(0, 0, 0), rgb(237, 237, 237)); text-align: left;&quot;&gt;victorias&lt;/span&gt;&lt;/div&gt;" style="html=1;whiteSpace=wrap;" vertex="1" parent="BtGQuGBfDNKT1R61ve6A-25">
          <mxGeometry y="74" width="160" height="20" as="geometry" />
        </mxCell>
        <mxCell id="BtGQuGBfDNKT1R61ve6A-28" value="=21V &amp;gt;21D y &amp;lt;21C" style="text;strokeColor=none;fillColor=none;align=left;verticalAlign=top;spacingLeft=4;spacingRight=4;overflow=hidden;rotatable=0;points=[[0,0.5],[1,0.5]];portConstraint=eastwest;whiteSpace=wrap;html=1;" vertex="1" parent="BtGQuGBfDNKT1R61ve6A-25">
          <mxGeometry y="94" width="160" height="26" as="geometry" />
        </mxCell>
        <mxCell id="BtGQuGBfDNKT1R61ve6A-29" value="jugador" style="swimlane;fontStyle=0;childLayout=stackLayout;horizontal=1;startSize=26;fillColor=none;horizontalStack=0;resizeParent=1;resizeParentMax=0;resizeLast=0;collapsible=1;marginBottom=0;whiteSpace=wrap;html=1;" vertex="1" parent="1">
          <mxGeometry x="175" y="637" width="140" height="100" as="geometry" />
        </mxCell>
        <mxCell id="BtGQuGBfDNKT1R61ve6A-30" value="cartas" style="text;strokeColor=none;fillColor=none;align=left;verticalAlign=top;spacingLeft=4;spacingRight=4;overflow=hidden;rotatable=0;points=[[0,0.5],[1,0.5]];portConstraint=eastwest;whiteSpace=wrap;html=1;" vertex="1" parent="BtGQuGBfDNKT1R61ve6A-29">
          <mxGeometry y="26" width="140" height="26" as="geometry" />
        </mxCell>
        <mxCell id="BtGQuGBfDNKT1R61ve6A-31" value="recojer" style="text;strokeColor=none;fillColor=none;align=left;verticalAlign=top;spacingLeft=4;spacingRight=4;overflow=hidden;rotatable=0;points=[[0,0.5],[1,0.5]];portConstraint=eastwest;whiteSpace=wrap;html=1;" vertex="1" parent="BtGQuGBfDNKT1R61ve6A-29">
          <mxGeometry y="52" width="140" height="26" as="geometry" />
        </mxCell>
        <mxCell id="BtGQuGBfDNKT1R61ve6A-76" value="quedarse" style="html=1;whiteSpace=wrap;" vertex="1" parent="BtGQuGBfDNKT1R61ve6A-29">
          <mxGeometry y="78" width="140" height="22" as="geometry" />
        </mxCell>
        <mxCell id="BtGQuGBfDNKT1R61ve6A-33" value="blackjack" style="swimlane;fontStyle=0;childLayout=stackLayout;horizontal=1;startSize=26;fillColor=none;horizontalStack=0;resizeParent=1;resizeParentMax=0;resizeLast=0;collapsible=1;marginBottom=0;whiteSpace=wrap;html=1;" vertex="1" parent="1">
          <mxGeometry x="-65" y="403" width="140" height="100" as="geometry" />
        </mxCell>
        <mxCell id="BtGQuGBfDNKT1R61ve6A-34" value="jugador" style="text;strokeColor=none;fillColor=none;align=left;verticalAlign=top;spacingLeft=4;spacingRight=4;overflow=hidden;rotatable=0;points=[[0,0.5],[1,0.5]];portConstraint=eastwest;whiteSpace=wrap;html=1;" vertex="1" parent="BtGQuGBfDNKT1R61ve6A-33">
          <mxGeometry y="26" width="140" height="26" as="geometry" />
        </mxCell>
        <mxCell id="BtGQuGBfDNKT1R61ve6A-35" value="bot" style="text;strokeColor=none;fillColor=none;align=left;verticalAlign=top;spacingLeft=4;spacingRight=4;overflow=hidden;rotatable=0;points=[[0,0.5],[1,0.5]];portConstraint=eastwest;whiteSpace=wrap;html=1;" vertex="1" parent="BtGQuGBfDNKT1R61ve6A-33">
          <mxGeometry y="52" width="140" height="26" as="geometry" />
        </mxCell>
        <mxCell id="BtGQuGBfDNKT1R61ve6A-36" value="cartas" style="text;strokeColor=none;fillColor=none;align=left;verticalAlign=top;spacingLeft=4;spacingRight=4;overflow=hidden;rotatable=0;points=[[0,0.5],[1,0.5]];portConstraint=eastwest;whiteSpace=wrap;html=1;" vertex="1" parent="BtGQuGBfDNKT1R61ve6A-33">
          <mxGeometry y="78" width="140" height="22" as="geometry" />
        </mxCell>
        <mxCell id="BtGQuGBfDNKT1R61ve6A-53" style="edgeStyle=orthogonalEdgeStyle;rounded=0;orthogonalLoop=1;jettySize=auto;html=1;exitX=1;exitY=0.5;exitDx=0;exitDy=0;entryX=0;entryY=0.5;entryDx=0;entryDy=0;" edge="1" parent="1" source="BtGQuGBfDNKT1R61ve6A-40" target="BtGQuGBfDNKT1R61ve6A-22">
          <mxGeometry relative="1" as="geometry">
            <mxPoint x="115" y="652.4444444444443" as="targetPoint" />
          </mxGeometry>
        </mxCell>
        <mxCell id="BtGQuGBfDNKT1R61ve6A-54" style="edgeStyle=orthogonalEdgeStyle;rounded=0;orthogonalLoop=1;jettySize=auto;html=1;exitX=1;exitY=0.5;exitDx=0;exitDy=0;entryX=0;entryY=0.5;entryDx=0;entryDy=0;" edge="1" parent="1" source="BtGQuGBfDNKT1R61ve6A-40" target="BtGQuGBfDNKT1R61ve6A-30">
          <mxGeometry relative="1" as="geometry">
            <mxPoint x="125" y="652.4444444444443" as="targetPoint" />
          </mxGeometry>
        </mxCell>
        <mxCell id="BtGQuGBfDNKT1R61ve6A-40" value="metod: + num random (1-12)" style="html=1;whiteSpace=wrap;" vertex="1" parent="1">
          <mxGeometry x="-95" y="627" width="160" height="50" as="geometry" />
        </mxCell>
        <mxCell id="BtGQuGBfDNKT1R61ve6A-46" style="edgeStyle=orthogonalEdgeStyle;rounded=0;orthogonalLoop=1;jettySize=auto;html=1;exitX=1;exitY=0.5;exitDx=0;exitDy=0;entryX=0;entryY=0.25;entryDx=0;entryDy=0;" edge="1" parent="1" source="BtGQuGBfDNKT1R61ve6A-35" target="BtGQuGBfDNKT1R61ve6A-21">
          <mxGeometry relative="1" as="geometry" />
        </mxCell>
        <mxCell id="BtGQuGBfDNKT1R61ve6A-47" style="edgeStyle=orthogonalEdgeStyle;rounded=0;orthogonalLoop=1;jettySize=auto;html=1;exitX=0;exitY=0.5;exitDx=0;exitDy=0;entryX=1;entryY=0;entryDx=0;entryDy=0;" edge="1" parent="1" source="BtGQuGBfDNKT1R61ve6A-36" target="BtGQuGBfDNKT1R61ve6A-17">
          <mxGeometry relative="1" as="geometry">
            <Array as="points">
              <mxPoint x="-65" y="487" />
              <mxPoint x="-145" y="487" />
            </Array>
          </mxGeometry>
        </mxCell>
        <mxCell id="BtGQuGBfDNKT1R61ve6A-50" style="edgeStyle=orthogonalEdgeStyle;rounded=0;orthogonalLoop=1;jettySize=auto;html=1;exitX=1;exitY=0.5;exitDx=0;exitDy=0;entryX=0.181;entryY=-0.047;entryDx=0;entryDy=0;entryPerimeter=0;" edge="1" parent="1" source="BtGQuGBfDNKT1R61ve6A-20" target="BtGQuGBfDNKT1R61ve6A-40">
          <mxGeometry relative="1" as="geometry" />
        </mxCell>
        <mxCell id="BtGQuGBfDNKT1R61ve6A-57" style="edgeStyle=orthogonalEdgeStyle;rounded=0;orthogonalLoop=1;jettySize=auto;html=1;exitX=0;exitY=0.5;exitDx=0;exitDy=0;entryX=1;entryY=0.5;entryDx=0;entryDy=0;" edge="1" parent="1" source="BtGQuGBfDNKT1R61ve6A-55" target="BtGQuGBfDNKT1R61ve6A-39">
          <mxGeometry relative="1" as="geometry" />
        </mxCell>
        <mxCell id="BtGQuGBfDNKT1R61ve6A-55" value="jugador/bot &amp;gt;21" style="html=1;whiteSpace=wrap;" vertex="1" parent="1">
          <mxGeometry x="-50" y="741" width="110" height="50" as="geometry" />
        </mxCell>
        <mxCell id="BtGQuGBfDNKT1R61ve6A-56" style="edgeStyle=orthogonalEdgeStyle;rounded=0;orthogonalLoop=1;jettySize=auto;html=1;exitX=0;exitY=0.5;exitDx=0;exitDy=0;entryX=1;entryY=0.5;entryDx=0;entryDy=0;" edge="1" parent="1" source="BtGQuGBfDNKT1R61ve6A-31" target="BtGQuGBfDNKT1R61ve6A-55">
          <mxGeometry relative="1" as="geometry" />
        </mxCell>
        <mxCell id="BtGQuGBfDNKT1R61ve6A-58" style="edgeStyle=orthogonalEdgeStyle;rounded=0;orthogonalLoop=1;jettySize=auto;html=1;exitX=0;exitY=0.5;exitDx=0;exitDy=0;entryX=1;entryY=0.25;entryDx=0;entryDy=0;" edge="1" parent="1" source="BtGQuGBfDNKT1R61ve6A-23" target="BtGQuGBfDNKT1R61ve6A-55">
          <mxGeometry relative="1" as="geometry">
            <Array as="points">
              <mxPoint x="95" y="563" />
              <mxPoint x="95" y="754" />
            </Array>
          </mxGeometry>
        </mxCell>
        <mxCell id="BtGQuGBfDNKT1R61ve6A-61" style="edgeStyle=orthogonalEdgeStyle;rounded=0;orthogonalLoop=1;jettySize=auto;html=1;exitX=0;exitY=0.5;exitDx=0;exitDy=0;entryX=1;entryY=0.5;entryDx=0;entryDy=0;" edge="1" parent="1" source="BtGQuGBfDNKT1R61ve6A-59" target="BtGQuGBfDNKT1R61ve6A-38">
          <mxGeometry relative="1" as="geometry" />
        </mxCell>
        <mxCell id="BtGQuGBfDNKT1R61ve6A-59" value="jugador/bot &amp;lt;21" style="html=1;whiteSpace=wrap;" vertex="1" parent="1">
          <mxGeometry x="-5" y="820" width="110" height="50" as="geometry" />
        </mxCell>
        <mxCell id="BtGQuGBfDNKT1R61ve6A-60" style="edgeStyle=orthogonalEdgeStyle;rounded=0;orthogonalLoop=1;jettySize=auto;html=1;exitX=0;exitY=0.5;exitDx=0;exitDy=0;entryX=1;entryY=0.5;entryDx=0;entryDy=0;" edge="1" parent="1" source="BtGQuGBfDNKT1R61ve6A-31" target="BtGQuGBfDNKT1R61ve6A-59">
          <mxGeometry relative="1" as="geometry" />
        </mxCell>
        <mxCell id="BtGQuGBfDNKT1R61ve6A-63" style="edgeStyle=orthogonalEdgeStyle;rounded=0;orthogonalLoop=1;jettySize=auto;html=1;exitX=1;exitY=0.5;exitDx=0;exitDy=0;" edge="1" parent="1" source="BtGQuGBfDNKT1R61ve6A-62">
          <mxGeometry relative="1" as="geometry">
            <mxPoint x="490" y="490" as="targetPoint" />
          </mxGeometry>
        </mxCell>
        <mxCell id="BtGQuGBfDNKT1R61ve6A-64" style="edgeStyle=orthogonalEdgeStyle;rounded=0;orthogonalLoop=1;jettySize=auto;html=1;exitX=1;exitY=0.5;exitDx=0;exitDy=0;" edge="1" parent="1" source="BtGQuGBfDNKT1R61ve6A-62">
          <mxGeometry relative="1" as="geometry">
            <mxPoint x="490" y="730.0000000000002" as="targetPoint" />
          </mxGeometry>
        </mxCell>
        <mxCell id="BtGQuGBfDNKT1R61ve6A-69" style="edgeStyle=orthogonalEdgeStyle;rounded=0;orthogonalLoop=1;jettySize=auto;html=1;exitX=1;exitY=0.5;exitDx=0;exitDy=0;" edge="1" parent="1" source="BtGQuGBfDNKT1R61ve6A-62">
          <mxGeometry relative="1" as="geometry">
            <mxPoint x="500" y="615.4444444444443" as="targetPoint" />
          </mxGeometry>
        </mxCell>
        <mxCell id="BtGQuGBfDNKT1R61ve6A-62" value="si quedarse" style="triangle;whiteSpace=wrap;html=1;rotation=0;" vertex="1" parent="1">
          <mxGeometry x="374.91" y="570.13" width="75" height="90" as="geometry" />
        </mxCell>
        <mxCell id="BtGQuGBfDNKT1R61ve6A-67" style="edgeStyle=orthogonalEdgeStyle;rounded=0;orthogonalLoop=1;jettySize=auto;html=1;exitX=1;exitY=0.5;exitDx=0;exitDy=0;" edge="1" parent="1" source="BtGQuGBfDNKT1R61ve6A-65">
          <mxGeometry relative="1" as="geometry">
            <mxPoint x="610.0000000000005" y="465.44444444444446" as="targetPoint" />
          </mxGeometry>
        </mxCell>
        <mxCell id="BtGQuGBfDNKT1R61ve6A-65" value="jugador/bot &amp;gt;21" style="html=1;whiteSpace=wrap;" vertex="1" parent="1">
          <mxGeometry x="470" y="440" width="110" height="50" as="geometry" />
        </mxCell>
        <mxCell id="BtGQuGBfDNKT1R61ve6A-73" style="edgeStyle=orthogonalEdgeStyle;rounded=0;orthogonalLoop=1;jettySize=auto;html=1;exitX=1;exitY=0.5;exitDx=0;exitDy=0;" edge="1" parent="1" source="BtGQuGBfDNKT1R61ve6A-66">
          <mxGeometry relative="1" as="geometry">
            <mxPoint x="650.0000000000005" y="755.4444444444443" as="targetPoint" />
          </mxGeometry>
        </mxCell>
        <mxCell id="BtGQuGBfDNKT1R61ve6A-66" value="jugador &amp;gt; bot &amp;amp; jugador &amp;lt;=21" style="html=1;whiteSpace=wrap;" vertex="1" parent="1">
          <mxGeometry x="470" y="730" width="110" height="50" as="geometry" />
        </mxCell>
        <mxCell id="BtGQuGBfDNKT1R61ve6A-68" value="pierde" style="rounded=0;whiteSpace=wrap;html=1;" vertex="1" parent="1">
          <mxGeometry x="620" y="455" width="70" height="20" as="geometry" />
        </mxCell>
        <mxCell id="BtGQuGBfDNKT1R61ve6A-72" style="edgeStyle=orthogonalEdgeStyle;rounded=0;orthogonalLoop=1;jettySize=auto;html=1;exitX=1;exitY=0.5;exitDx=0;exitDy=0;" edge="1" parent="1" source="BtGQuGBfDNKT1R61ve6A-70">
          <mxGeometry relative="1" as="geometry">
            <mxPoint x="690.0000000000005" y="700.0000000000002" as="targetPoint" />
          </mxGeometry>
        </mxCell>
        <mxCell id="BtGQuGBfDNKT1R61ve6A-70" value="bot &amp;gt; jugador &amp;amp;&lt;div&gt;bot&amp;lt;=21&lt;/div&gt;" style="rounded=0;whiteSpace=wrap;html=1;" vertex="1" parent="1">
          <mxGeometry x="500" y="585.13" width="120" height="60" as="geometry" />
        </mxCell>
        <mxCell id="BtGQuGBfDNKT1R61ve6A-74" value="gano" style="rounded=0;whiteSpace=wrap;html=1;" vertex="1" parent="1">
          <mxGeometry x="650" y="715" width="100" height="45" as="geometry" />
        </mxCell>
        <mxCell id="BtGQuGBfDNKT1R61ve6A-75" style="edgeStyle=orthogonalEdgeStyle;rounded=0;orthogonalLoop=1;jettySize=auto;html=1;exitX=1;exitY=0.5;exitDx=0;exitDy=0;entryX=0;entryY=0.25;entryDx=0;entryDy=0;" edge="1" parent="1" source="BtGQuGBfDNKT1R61ve6A-34" target="BtGQuGBfDNKT1R61ve6A-29">
          <mxGeometry relative="1" as="geometry" />
        </mxCell>
        <mxCell id="BtGQuGBfDNKT1R61ve6A-77" style="edgeStyle=orthogonalEdgeStyle;rounded=0;orthogonalLoop=1;jettySize=auto;html=1;exitX=1;exitY=0.5;exitDx=0;exitDy=0;entryX=0;entryY=0.5;entryDx=0;entryDy=0;" edge="1" parent="1" source="BtGQuGBfDNKT1R61ve6A-76" target="BtGQuGBfDNKT1R61ve6A-62">
          <mxGeometry relative="1" as="geometry" />
        </mxCell>
        <mxCell id="BtGQuGBfDNKT1R61ve6A-78" value="conteo" style="swimlane;fontStyle=1;align=center;verticalAlign=top;childLayout=stackLayout;horizontal=1;startSize=26;horizontalStack=0;resizeParent=1;resizeParentMax=0;resizeLast=0;collapsible=1;marginBottom=0;whiteSpace=wrap;html=1;" vertex="1" parent="1">
          <mxGeometry x="180" y="810" width="160" height="112" as="geometry" />
        </mxCell>
        <mxCell id="BtGQuGBfDNKT1R61ve6A-79" value="+ field: type" style="text;strokeColor=none;fillColor=none;align=left;verticalAlign=top;spacingLeft=4;spacingRight=4;overflow=hidden;rotatable=0;points=[[0,0.5],[1,0.5]];portConstraint=eastwest;whiteSpace=wrap;html=1;" vertex="1" parent="BtGQuGBfDNKT1R61ve6A-78">
          <mxGeometry y="26" width="160" height="26" as="geometry" />
        </mxCell>
        <mxCell id="BtGQuGBfDNKT1R61ve6A-82" value="+ field: type" style="text;strokeColor=none;fillColor=none;align=left;verticalAlign=top;spacingLeft=4;spacingRight=4;overflow=hidden;rotatable=0;points=[[0,0.5],[1,0.5]];portConstraint=eastwest;whiteSpace=wrap;html=1;" vertex="1" parent="BtGQuGBfDNKT1R61ve6A-78">
          <mxGeometry y="52" width="160" height="26" as="geometry" />
        </mxCell>
        <mxCell id="BtGQuGBfDNKT1R61ve6A-80" value="" style="line;strokeWidth=1;fillColor=none;align=left;verticalAlign=middle;spacingTop=-1;spacingLeft=3;spacingRight=3;rotatable=0;labelPosition=right;points=[];portConstraint=eastwest;strokeColor=inherit;" vertex="1" parent="BtGQuGBfDNKT1R61ve6A-78">
          <mxGeometry y="78" width="160" height="8" as="geometry" />
        </mxCell>
        <mxCell id="BtGQuGBfDNKT1R61ve6A-81" value="+ method(type): type" style="text;strokeColor=none;fillColor=none;align=left;verticalAlign=top;spacingLeft=4;spacingRight=4;overflow=hidden;rotatable=0;points=[[0,0.5],[1,0.5]];portConstraint=eastwest;whiteSpace=wrap;html=1;" vertex="1" parent="BtGQuGBfDNKT1R61ve6A-78">
          <mxGeometry y="86" width="160" height="26" as="geometry" />
        </mxCell>
      </root>
    </mxGraphModel>
  </diagram>
</mxfile>
